<svg xmlns="http://www.w3.org/2000/svg" viewBox="0 0 100 100"><defs><style>.cls-1{fill:#ec5505;}.cls-2{fill:#8d3e30;}.cls-3{fill:#fff;}.cls-4{fill:#ececec;}.cls-5{fill:#ec5400;stroke:#ec5400;stroke-miterlimit:10;}</style></defs><title>auvpass</title><g id="layer"><path class="cls-1" d="M70.89,63.64a1.32,1.32,0,0,0,0,2.3l16.42,11.6c.9.63,1.63.25,1.63-.85V52.89c0-1.1-.73-1.48-1.63-.85Z"/><rect class="cls-2" x="75.42" y="56.89" width="4.81" height="15.8"/><circle class="cls-3" cx="50" cy="50" r="50"/><circle class="cls-1" cx="67.38" cy="29.79" r="15.9"/><circle class="cls-1" cx="30.38" cy="29.79" r="15.9"/><rect class="cls-4" x="16.61" y="48.69" width="58.81" height="35.13" rx="4.75" ry="4.75"/><path class="cls-5" d="M48.11,70.67H46.62V69A4.21,4.21,0,0,1,43,70.88a5,5,0,1,1,0-10,4.06,4.06,0,0,1,3.64,1.91V61.22h1.49ZM39.36,65.9A3.63,3.63,0,1,0,43,62.26,3.57,3.57,0,0,0,39.36,65.9Z"/><path class="cls-5" d="M25.1,61.22h1.48v1.59a4.06,4.06,0,0,1,3.64-1.91,5,5,0,1,1,0,10A4.22,4.22,0,0,1,26.58,69v5.1H25.1Zm5.12,1a3.63,3.63,0,1,0,3.62,3.64A3.58,3.58,0,0,0,30.22,62.26Z"/><path class="cls-5" d="M55.69,63.08a1.34,1.34,0,0,0-1.38-1.17c-.71,0-1.36.34-1.36,1C53,64,54.06,64.51,55.09,65a3.75,3.75,0,0,1,2.42,3.15,3.1,3.1,0,0,1-3.38,3c-1.48,0-2.41-1.19-3-2.57l1.28,0a1.54,1.54,0,0,0,1.68,1.21,1.62,1.62,0,0,0,1.77-1.56c0-1.11-1-1.66-2.21-2.24A3.33,3.33,0,0,1,51.39,63c0-1.86,1.52-2.52,2.87-2.52A3.13,3.13,0,0,1,57.11,63Z"/><path class="cls-5" d="M65.22,63.08a1.34,1.34,0,0,0-1.38-1.17c-.71,0-1.36.34-1.36,1,0,1.11,1.11,1.62,2.14,2.07A3.75,3.75,0,0,1,67,68.11a3.1,3.1,0,0,1-3.38,3c-1.48,0-2.41-1.19-3-2.57l1.28,0a1.54,1.54,0,0,0,1.68,1.21,1.62,1.62,0,0,0,1.77-1.56c0-1.11-1-1.66-2.21-2.24A3.33,3.33,0,0,1,60.92,63c0-1.86,1.52-2.52,2.88-2.52A3.13,3.13,0,0,1,66.64,63Z"/></g></svg>