<svg xmlns="http://www.w3.org/2000/svg" xmlns:xlink="http://www.w3.org/1999/xlink" viewBox="0 0 100 100"><defs><style>.cls-1{fill:none;}.cls-2{clip-path:url(#clip-path);}.cls-3{fill:#eb5527;}.cls-4{fill:#f59b7d;}.cls-5,.cls-6{fill:#fff;}.cls-5{stroke:#fff;stroke-miterlimit:10;}</style><clipPath id="clip-path"><circle class="cls-1" cx="50" cy="50" r="50"/></clipPath></defs><title>danime</title><g id="layer"><g class="cls-2"><circle class="cls-3" cx="50" cy="50" r="50"/><path class="cls-4" d="M75.38,103.76c0,2.75-1.94,3.86-4.31,2.47l-40.6-23.8a9.69,9.69,0,0,1-4.32-7.53V28.2c0-2.75,2-3.9,4.36-2.54L71,48.57A9.47,9.47,0,0,1,75.38,56Z"/><path class="cls-4" d="M85.05,105.33c-2.37,1.39-4.31.28-4.31-2.47l0-47.29a9.67,9.67,0,0,1,4.32-7.52l40.12-23.49c2.37-1.39,4.35-.27,4.39,2.48l.69,46.77a9.47,9.47,0,0,1-4.24,7.52Z"/><path class="cls-4" d="M120.8,16.08c2.38,1.36,2.38,3.6,0,5l-39,22.35a9.66,9.66,0,0,1-8.67,0l-39-22.35c-2.39-1.37-2.39-3.61,0-5l39-22.36a9.72,9.72,0,0,1,8.67,0Z"/><path class="cls-5" d="M31.57,76a10.12,10.12,0,0,0-.08,1.7c-.09,3.59-.66,5.61-2.08,7.43A12.13,12.13,0,0,1,24,88.88a7.48,7.48,0,0,0-1.66-2.39A9.8,9.8,0,0,0,26,84.7c2.14-1.7,2.81-3.5,2.81-7.47A5,5,0,0,0,28.71,76Zm8.52-2.65a6.24,6.24,0,0,0-.84,1.47A13.17,13.17,0,0,1,36,79a13,13,0,0,1-2.52,1.75,6.86,6.86,0,0,0-1.89-1.91,9.71,9.71,0,0,0,3.07-1.94,8.52,8.52,0,0,0,2-2.66h-11a21.24,21.24,0,0,0-2.86.12V71.75a16.34,16.34,0,0,0,2.9.17h11a5.75,5.75,0,0,0,2-.19Z"/><path class="cls-5" d="M43.31,83.51a15.4,15.4,0,0,0,2.69.14h12a15.4,15.4,0,0,0,2.69-.14v2.81a21.92,21.92,0,0,0-2.65-.1H46a21.81,21.81,0,0,0-2.65.1Zm2.12-10.23a12.73,12.73,0,0,0,2.48.15h8.25a12.73,12.73,0,0,0,2.48-.15v2.77a19.13,19.13,0,0,0-2.46-.1H47.89a19,19,0,0,0-2.46.1Z"/><path class="cls-5" d="M79.64,72a13.17,13.17,0,0,0-.74,1.51,34.66,34.66,0,0,1-3,5.94,48.86,48.86,0,0,1,4.68,4.45l-2,2.17a31,31,0,0,0-4.26-4.43,24.69,24.69,0,0,1-3.28,3.5,26.18,26.18,0,0,1-5,3.47,6.48,6.48,0,0,0-1.84-2.19,22.88,22.88,0,0,0,8.1-6.48,37.32,37.32,0,0,0-5.56-3.78l1.84-1.85c1.54.9,2.44,1.49,3.47,2.22,1.57,1.14,1.57,1.14,1.74,1.24a25.31,25.31,0,0,0,3-6.76Z"/><path class="cls-6" d="M63.45,0l.16,23s-3.77-2.4-11-2.4c-14,0-25.29,10.17-25.29,24.21s11.32,23,25.29,23c9.24,0,16.85-3.63,24.08-9.68V0ZM52.31,56.27A11.8,11.8,0,1,1,64.05,44.48,11.76,11.76,0,0,1,52.31,56.27Z"/></g></g></svg>