<svg id="layer" xmlns="http://www.w3.org/2000/svg" xmlns:xlink="http://www.w3.org/1999/xlink" viewBox="0 0 100 100"><defs><style>.cls-1{fill:none;}.cls-2{clip-path:url(#clip-path);}.cls-3{fill:#eb5527;}.cls-4{fill:#f59b7d;}.cls-5{font-size:16px;font-family:HiraginoSansCNS-W6-B5pc-H, Hiragino Sans CNS;letter-spacing:-0.1em;}.cls-5,.cls-6{fill:#fff;}</style><clipPath id="clip-path"><circle class="cls-1" cx="50" cy="50" r="50"/></clipPath></defs><title>danime</title><g class="cls-2"><circle class="cls-3" cx="50" cy="50" r="50"/><path class="cls-4" d="M75.38,103.76c0,2.75-1.94,3.86-4.31,2.47l-40.6-23.8a9.69,9.69,0,0,1-4.32-7.53V28.2c0-2.75,2-3.9,4.36-2.54L71,48.57A9.47,9.47,0,0,1,75.38,56Z"/><path class="cls-4" d="M85.05,105.33c-2.37,1.39-4.31.28-4.31-2.47l0-47.29a9.67,9.67,0,0,1,4.32-7.52l40.12-23.49c2.37-1.39,4.35-.27,4.39,2.48l.69,46.77a9.47,9.47,0,0,1-4.24,7.52Z"/><path class="cls-4" d="M120.8,16.08c2.38,1.36,2.38,3.6,0,5l-39,22.35a9.66,9.66,0,0,1-8.67,0l-39-22.35c-2.39-1.37-2.39-3.61,0-5l39-22.36a9.72,9.72,0,0,1,8.67,0Z"/><text class="cls-5" transform="translate(8.69 75.09) scale(0.99 1)">アニメストア</text><path class="cls-6" d="M59-.52l.14,19.57s-3.21-2-9.37-2c-11.89,0-21.53,8.66-21.53,20.62s9.64,19.59,21.53,19.59c7.88,0,14.36-3.1,20.52-8.25V-.52ZM49.49,47.42a10.05,10.05,0,1,1,10-10.05A10,10,0,0,1,49.49,47.42Z"/><rect id="SVGID" class="cls-1" width="100" height="100" rx="20.17" ry="20.17"/></g></svg>