<svg xmlns="http://www.w3.org/2000/svg" xmlns:xlink="http://www.w3.org/1999/xlink" viewBox="0 0 100 100"><defs><style>.cls-1,.cls-4,.cls-5{fill:none;}.cls-2{clip-path:url(#clip-path);}.cls-3{fill:#df062e;}.cls-4{stroke:#cc0133;}.cls-4,.cls-5{stroke-miterlimit:10;stroke-width:50px;stroke-dasharray:10.47 20.94;}.cls-5{stroke:#b50d2c;}.cls-6{fill:#fff;}</style><clipPath id="clip-path"><circle class="cls-1" cx="50" cy="50" r="50"/></clipPath></defs><title>dtv</title><g id="layer"><g class="cls-2"><circle class="cls-3" cx="50" cy="50" r="50"/><circle class="cls-4" cx="50" cy="50" r="25" transform="matrix(1, -0.05, 0.05, 1, -2.21, 2.31)"/><circle class="cls-5" cx="50" cy="50" r="25" transform="translate(-17.73 70.31) rotate(-61.69)"/><path class="cls-6" d="M60.45,0l.16,23s-3.77-2.4-11-2.4c-14,0-25.29,10.17-25.29,24.21s11.32,23,25.29,23c9.24,0,16.85-3.63,24.08-9.68V0ZM49.31,56.27A11.8,11.8,0,1,1,61.05,44.48,11.76,11.76,0,0,1,49.31,56.27Z"/><polygon class="cls-6" points="39.1 92.88 43.15 92.88 43.15 78.11 48.77 78.11 48.77 74.46 33.48 74.46 33.48 78.11 39.1 78.11 39.1 92.88"/><path class="cls-6" d="M57.5,93h4.7l7-18.56H64.5L59.85,86.8,55.2,74.46H50.5L57.5,93h4.7"/></g></g></svg>