<svg id="layer" xmlns="http://www.w3.org/2000/svg" viewBox="0 0 97 97"><defs><style>.cls-1{fill:#b3b3b3;}.cls-2{fill:#efefef;}.cls-3{fill:#467be1;}.cls-4{fill:#3764cf;}.cls-5{fill:#4c8cf5;}.cls-6{fill:#efeeee;}.cls-7{fill:#c5c5dc;}.cls-8{fill:#f0eff1;}</style></defs><title>logo</title><path class="cls-1" d="M15.23,0H81.77A12.23,12.23,0,0,1,94,12.23V17a0,0,0,0,1,0,0H3a0,0,0,0,1,0,0V12.23A12.23,12.23,0,0,1,15.23,0Z"/><circle class="cls-2" cx="28.5" cy="7.5" r="3.5"/><circle class="cls-2" cx="68.5" cy="7.5" r="3.5"/><path class="cls-3" d="M89.28,97H7.72A5.63,5.63,0,0,1,2,91.11L4.23,56H92.77L95,91.11A5.63,5.63,0,0,1,89.28,97Z"/><path class="cls-4" d="M91.28,15H5.72A5.63,5.63,0,0,0,0,20.89L4.23,56H92.77L97,20.89A5.63,5.63,0,0,0,91.28,15Z"/><path class="cls-5" d="M41.5,97H7.72A5.63,5.63,0,0,1,2,91.11L4.23,56S44.8,97,41.5,97Z"/><path class="cls-6" d="M51.15,53.35c7.38-3,11.16-8,12.8-13H60.34c-9.09,0-23,.16-32.63.42L27.5,35c6.43.21,15,.37,22.9.37,6.7,0,12.86-.11,16.53-.37l4.57,3.5C68.36,46.81,64,53.61,56.09,58Z"/><path class="cls-7" d="M29.5,71.3c13-4.43,15.84-14.09,15.84-23.85,0-.83,0-1.61-.05-2.45l6.21.26c-1,14-3,23.59-17.26,30.74Z"/><path class="cls-7" d="M51.15,53.35c7.38-3,11.16-8,12.8-13H60.34c-9.09,0-23,.16-32.63.42L27.5,35c6.43.21,15,.37,22.9.37,6.7,0,12.86-.11,16.53-.37l4.57,3.5C68.36,46.81,64,53.61,56.09,58Z"/><path class="cls-8" d="M50.21,56c-1.74,8.42-5.66,14.85-16,20L29.5,71.3c9.1-3.11,13.23-8.81,14.88-15.3"/><path class="cls-8" d="M59.22,56a31.56,31.56,0,0,1-3.13,2L54,56"/></svg>