<svg xmlns="http://www.w3.org/2000/svg" viewBox="0 0 389.49 31.42"><defs><style>.cls-1{fill:#4285f4;stroke:#4285f4;}.cls-1,.cls-2,.cls-3,.cls-4{stroke-miterlimit:10;stroke-width:0.25px;}.cls-2{fill:#ea4335;stroke:#ea4335;}.cls-3{fill:#fbbc05;stroke:#fbbc05;}.cls-4{fill:#34a853;stroke:#34a853;}</style></defs><title>logo_typo</title><g id="layer"><path class="cls-1" d="M5.24,18.07,3.15,23.33h-3L8.76.53h3.42l8.37,22.8H17.34l-1.88-5.26ZM10.4,4.16,6.09,15.61h8.48Z"/><path class="cls-2" d="M25.91,7.58V9.8a5.39,5.39,0,0,1,4.68-2.6,5.48,5.48,0,0,1,3.66,1.3c1,1,1.33,2.05,1.33,4.2V23.33H33v-10a4.25,4.25,0,0,0-.59-2.7,3,3,0,0,0-2.46-1.06,3.9,3.9,0,0,0-3,1.34,3.69,3.69,0,0,0-1,2.87v9.6h-2.6V7.58Z"/><path class="cls-3" d="M43.68,3.17A1.65,1.65,0,0,1,42,4.81a1.63,1.63,0,0,1-1.64-1.68A1.63,1.63,0,0,1,42,1.46,1.66,1.66,0,0,1,43.68,3.17ZM43.3,23.33H40.7V7.58h2.6Z"/><path class="cls-1" d="M51.13,7.58V9.76A4.91,4.91,0,0,1,55.6,7.2a4.06,4.06,0,0,1,4.24,2.87,5.14,5.14,0,0,1,5-2.87,4.75,4.75,0,0,1,4,1.67c.75,1,1,1.88,1,4.38V23.33h-2.6V13.86c0-1.91-.07-2.36-.45-3A3.06,3.06,0,0,0,64,9.52c-2.29,0-3.55,1.54-3.55,4.34v9.47h-2.6V13.9a6,6,0,0,0-.51-3,2.73,2.73,0,0,0-2.57-1.37c-2.29,0-3.65,1.64-3.65,4.38v9.43h-2.6V7.58Z"/><path class="cls-4" d="M77.1,18.18a5,5,0,0,0,2,2.27,5.1,5.1,0,0,0,4.73.41,5.44,5.44,0,0,0,3.36-4.27l2.45-.06a7.72,7.72,0,0,1-4.91,6.55,7.82,7.82,0,0,1-10.52-4.6c-1.82-4.5,0-8.94,4.24-10.67A7.84,7.84,0,0,1,88.92,12.3c.07.19.24.6.35,1ZM86,12.51a4.91,4.91,0,0,0-1.84-2.17A5.36,5.36,0,0,0,79.35,10a5,5,0,0,0-3.11,3.61,6.22,6.22,0,0,0,.18,2.81Z"/><path class="cls-2" d="M103.36,17.21c.16,2.6,1.76,4,4.62,4s5-1.57,5-3.86c0-2-1.17-2.91-5.28-4.11-3.1-.92-4.11-1.36-5.29-2.29a5.33,5.33,0,0,1-2-4.3c0-3.86,3.17-6.5,7.79-6.5s7.63,2.57,7.75,6.53h-3.29A4,4,0,0,0,112,4.29a4.8,4.8,0,0,0-3.87-1.6c-2.59,0-4.43,1.54-4.43,3.72A3,3,0,0,0,105.2,9a16.12,16.12,0,0,0,4.19,1.61c2.78.85,4.11,1.47,5.17,2.46a5.5,5.5,0,0,1,1.76,4c0,3.93-3.33,6.6-8.22,6.6-3.33,0-5.6-1-7-3.08a5,5,0,0,1-.9-3v-.48Z"/><path class="cls-1" d="M123.08,20.12c0,.78.24.95,1.2.95h1.19v2.26h-2.42c-1.85,0-2.57-.72-2.57-2.46v-11H118.3V7.58h2.18v-5h2.6v5h2.39V9.86h-2.39Z"/><path class="cls-2" d="M131.76,7.58v2.66a4.36,4.36,0,0,1,1.44-2.08,4.87,4.87,0,0,1,3-1h.62V9.83a6.73,6.73,0,0,0-.72,0,4.05,4.05,0,0,0-3.42,1.81,5.79,5.79,0,0,0-.92,3.72v8h-2.6V7.58Z"/><path class="cls-3" d="M141.53,16.29a4.93,4.93,0,0,0,1,2.87,5.11,5.11,0,0,0,4.23,2.15,5.46,5.46,0,0,0,4.72-2.7l2.29.86a7.72,7.72,0,0,1-7,4.24,7.82,7.82,0,0,1-8-8.21c0-4.85,3.32-8.3,7.93-8.3a7.84,7.84,0,0,1,8,8.07c0,.2,0,.64,0,1Zm10.39-1.91a4.82,4.82,0,0,0-.89-2.7,5.38,5.38,0,0,0-4.34-2.16,5.07,5.07,0,0,0-4.24,2.19,6.16,6.16,0,0,0-.88,2.67Z"/><path class="cls-1" d="M170.34,7.58h2.59V23.33h-2.59v-3c-1.58,2.36-3.35,3.42-5.75,3.42-4.34,0-7.41-3.42-7.41-8.21s3.14-8.3,7.48-8.3a6.59,6.59,0,0,1,5.68,3Zm-9.13,3.82a7.19,7.19,0,0,0-1.3,4.17c0,3.35,2.19,5.88,5.06,5.88s5.4-2.77,5.4-6.15S168.18,9.52,165,9.52A4.29,4.29,0,0,0,161.21,11.4Z"/><path class="cls-4" d="M180.75,7.58V9.76a4.93,4.93,0,0,1,4.48-2.56,4.07,4.07,0,0,1,4.24,2.87,5.14,5.14,0,0,1,5-2.87,4.75,4.75,0,0,1,4,1.67c.75,1,.95,1.88.95,4.38V23.33h-2.59V13.86c0-1.91-.07-2.36-.45-3a3.08,3.08,0,0,0-2.73-1.34c-2.29,0-3.56,1.54-3.56,4.34v9.47h-2.59V13.9a5.86,5.86,0,0,0-.52-3,2.7,2.7,0,0,0-2.56-1.37c-2.29,0-3.66,1.64-3.66,4.38v9.43h-2.59V7.58Z"/><path class="cls-2" d="M207.51,3.17a1.66,1.66,0,0,1-1.68,1.64,1.63,1.63,0,0,1-1.64-1.68,1.63,1.63,0,0,1,1.68-1.67A1.66,1.66,0,0,1,207.51,3.17Zm-.38,20.16h-2.6V7.58h2.6Z"/><path class="cls-1" d="M215,7.58V9.8a5.39,5.39,0,0,1,4.69-2.6,5.47,5.47,0,0,1,3.65,1.3c1,1,1.34,2.05,1.34,4.2V23.33H222v-10a4.33,4.33,0,0,0-.58-2.7A3,3,0,0,0,219,9.52a3.92,3.92,0,0,0-3,1.34,3.73,3.73,0,0,0-1,2.87v9.6h-2.59V7.58Z"/><path class="cls-2" d="M241.4,7.58H244V23.43c0,2.63-.65,4.41-2.09,5.78a8.08,8.08,0,0,1-5.81,2.08,8.86,8.86,0,0,1-7-2.87l1.78-1.77a9.59,9.59,0,0,0,1.5,1.36,7.63,7.63,0,0,0,3.69.93,5.77,5.77,0,0,0,4.11-1.54,5.43,5.43,0,0,0,1.19-3.76V20.32a6.54,6.54,0,0,1-5.81,3.39c-4.17,0-7.28-3.52-7.28-8.21A9,9,0,0,1,230.81,9a6.91,6.91,0,0,1,5-1.84c2.39,0,4,.89,5.6,3.08ZM231.05,15.4c0,3.39,2.18,5.91,5.16,5.91a5.34,5.34,0,0,0,4-1.91,6.39,6.39,0,0,0,1.12-3.9c0-2.05-.3-3.14-1.23-4.17a5.36,5.36,0,0,0-3.82-1.74C233.2,9.59,231.05,12,231.05,15.4Z"/><path class="cls-3" d="M275.63,19.88a10.88,10.88,0,0,1-16.17.51,12.89,12.89,0,0,1-3-8.44c0-6.83,4.62-11.83,10.9-11.83A11.17,11.17,0,0,1,273,1.66,12,12,0,0,1,275.7,4l-2,1.85c-2.22-2.29-3.89-3.11-6.32-3.11-4.65,0-8,3.86-8,9.19s3.45,9.16,8.17,9.16A7.55,7.55,0,0,0,273.71,18Z"/><path class="cls-1" d="M290.93,7.58h2.6V23.33h-2.6v-3c-1.57,2.36-3.35,3.42-5.74,3.42-4.34,0-7.41-3.42-7.41-8.21s3.14-8.3,7.48-8.3a6.58,6.58,0,0,1,5.67,3Zm-9.12,3.82a7.19,7.19,0,0,0-1.3,4.17c0,3.35,2.19,5.88,5.06,5.88s5.4-2.77,5.4-6.15-2.19-5.78-5.33-5.78A4.29,4.29,0,0,0,281.81,11.4Z"/><path class="cls-4" d="M298.76,23.33V.53h2.59v22.8Z"/><path class="cls-2" d="M308.77,18.18a5,5,0,0,0,2,2.27,5.12,5.12,0,0,0,4.74.41,5.46,5.46,0,0,0,3.36-4.27l2.44-.06a7.72,7.72,0,0,1-4.91,6.55,7.82,7.82,0,0,1-10.52-4.6c-1.82-4.5,0-8.94,4.24-10.67a7.84,7.84,0,0,1,10.44,4.49c.08.19.24.6.35,1Zm8.92-5.67a4.85,4.85,0,0,0-1.84-2.17A5.36,5.36,0,0,0,311,10a5.08,5.08,0,0,0-3.11,3.61,6.37,6.37,0,0,0,.18,2.81Z"/><path class="cls-1" d="M327.59,7.58V9.8a5.39,5.39,0,0,1,4.68-2.6,5.48,5.48,0,0,1,3.66,1.3c1,1,1.33,2.05,1.33,4.2V23.33h-2.59v-10a4.25,4.25,0,0,0-.59-2.7,3,3,0,0,0-2.46-1.06,3.9,3.9,0,0,0-3,1.34,3.73,3.73,0,0,0-1,2.87v9.6H325V7.58Z"/><path class="cls-2" d="M354.18.53h2.59v22.8h-2.59v-2.7a6.47,6.47,0,0,1-5.64,3.08c-4.34,0-7.42-3.39-7.42-8.17s3.15-8.34,7.42-8.34A6.75,6.75,0,0,1,354.18,10Zm-10.33,15c0,3.45,2.09,5.88,5.06,5.88s5.27-2.53,5.27-5.95-2.09-6-5.1-6S343.85,12,343.85,15.57Z"/><path class="cls-3" d="M373.89,7.58h2.6V23.33h-2.6v-3c-1.57,2.36-3.35,3.42-5.74,3.42-4.34,0-7.42-3.42-7.42-8.21s3.15-8.3,7.49-8.3a6.59,6.59,0,0,1,5.67,3Zm-9.12,3.82a7.19,7.19,0,0,0-1.3,4.17c0,3.35,2.18,5.88,5.06,5.88s5.4-2.77,5.4-6.15-2.19-5.78-5.34-5.78A4.28,4.28,0,0,0,364.77,11.4Z"/><path class="cls-1" d="M384.31,7.58v2.66a4.42,4.42,0,0,1,1.43-2.08,4.92,4.92,0,0,1,3-1h.62V9.83a6.73,6.73,0,0,0-.72,0,4.05,4.05,0,0,0-3.42,1.81,5.79,5.79,0,0,0-.92,3.72v8h-2.6V7.58Z"/></g></svg>