<svg xmlns="http://www.w3.org/2000/svg" viewBox="0 0 100 100"><defs><style>.cls-1{fill:#0280de;}.cls-2{fill:#fff;}</style></defs><title>unext</title><g id="layer"><circle class="cls-1" cx="50" cy="50" r="50"/><path class="cls-2" d="M50,91.58h0c17.74,0,32.13-12.54,32.13-28V22.42a8,8,0,0,0-8.85-8L24.84,19.65a8,8,0,0,0-7,7.75V63.58C17.87,79,32.26,91.58,50,91.58Z"/><path class="cls-1" d="M50,84.7h0c14.13,0,25.59-10.3,25.59-23V22.4a.89.89,0,0,0-1-.9l-49.2,4.63a1.12,1.12,0,0,0-1,1.1V61.7C24.36,74.4,35.81,84.7,50,84.7Z"/><path class="cls-2" d="M50.2,75.47h0A16.29,16.29,0,0,0,66.49,59.18v-28a.44.44,0,0,0-.5-.44L34.4,34a.57.57,0,0,0-.49.55V59.18A16.29,16.29,0,0,0,50.2,75.47Z"/></g></svg>