<svg id="layer" xmlns="http://www.w3.org/2000/svg" viewBox="0 0 100 100"><defs><style>.cls-1{fill:#fff;}.cls-2{fill:#f8991c;}</style></defs><title>svg_amazon</title><rect class="cls-1" width="100" height="100" rx="20.17" ry="20.17"/><path d="M55.48,32.86c-8.95.33-31.14,2.84-31.14,21.59,0,20.12,25.41,20.94,33.72,7.93,1.19,1.88,6.5,6.9,8.32,8.6L76.82,60.69s-5.94-4.64-5.94-9.7V24c0-4.65-4.5-15.12-20.63-15.12S25.5,19,25.5,28L39,29.25c3-9.09,10-9.09,10-9.09,7.48,0,6.52,5.48,6.52,12.7Z"/><path class="cls-1" d="M55.48,48.81C55.48,63.51,40,61.3,40,52c0-8.68,9.28-10.42,15.47-10.62Z"/><path class="cls-2" d="M80.47,78.85c-1.41,1.84-12.86,12.31-32.06,12.31S14.51,78,10,72.6c-1.25-1.41.18-2.08,1-1.52,13.46,8.17,34.5,21.64,68.44,5.56C80.84,76,81.91,77,80.47,78.85Z"/><path class="cls-2" d="M87.79,79.25a15.27,15.27,0,0,1-3.9,5.7c-1,.83-1.75.49-1.19-.7S86.24,75.71,85,74.14s-6.8-.79-8.82-.58-2.39.36-2.57-.06c-.43-1,4-2.85,6.89-3.21s7.53-.15,8.45,1c.68.94,0,5-1.19,7.92Z"/></svg>